<svg xmlns="http://www.w3.org/2000/svg" version="1.1" baseProfile="full" viewBox="0 0 804 484" width="48.2em" height="29em">
<g font-size="16" font-family="monospace" fill="#000">
<rect x="0" y="0" width="804" height="484"></rect>
<rect x="2" y="2" height="20" width="360"></rect><g font-weight="bold" fill="#fff"><text x="2" y="17">1</text><text x="12" y="17">4</text><text x="22" y="17">.</text><text x="32" y="17">2</text> <text x="52" y="17">‘</text><text x="62" y="17">d</text><text x="72" y="17">u</text><text x="82" y="17">’</text><text x="92" y="17">:</text> <text x="112" y="17">E</text><text x="122" y="17">s</text><text x="132" y="17">t</text><text x="142" y="17">i</text><text x="152" y="17">m</text><text x="162" y="17">a</text><text x="172" y="17">t</text><text x="182" y="17">e</text> <text x="202" y="17">f</text><text x="212" y="17">i</text><text x="222" y="17">l</text><text x="232" y="17">e</text> <text x="252" y="17">s</text><text x="262" y="17">p</text><text x="272" y="17">a</text><text x="282" y="17">c</text><text x="292" y="17">e</text> <text x="312" y="17">u</text><text x="322" y="17">s</text><text x="332" y="17">a</text><text x="342" y="17">g</text><text x="352" y="17">e</text></g><rect x="362" y="2" height="20" width="440"></rect>
<rect x="2" y="22" height="20" width="360"></rect><g fill="#bbb"><text x="2" y="37">=</text><text x="12" y="37">=</text><text x="22" y="37">=</text><text x="32" y="37">=</text><text x="42" y="37">=</text><text x="52" y="37">=</text><text x="62" y="37">=</text><text x="72" y="37">=</text><text x="82" y="37">=</text><text x="92" y="37">=</text><text x="102" y="37">=</text><text x="112" y="37">=</text><text x="122" y="37">=</text><text x="132" y="37">=</text><text x="142" y="37">=</text><text x="152" y="37">=</text><text x="162" y="37">=</text><text x="172" y="37">=</text><text x="182" y="37">=</text><text x="192" y="37">=</text><text x="202" y="37">=</text><text x="212" y="37">=</text><text x="222" y="37">=</text><text x="232" y="37">=</text><text x="242" y="37">=</text><text x="252" y="37">=</text><text x="262" y="37">=</text><text x="272" y="37">=</text><text x="282" y="37">=</text><text x="292" y="37">=</text><text x="302" y="37">=</text><text x="312" y="37">=</text><text x="322" y="37">=</text><text x="332" y="37">=</text><text x="342" y="37">=</text><text x="352" y="37">=</text></g><rect x="362" y="22" height="20" width="440"></rect>
<rect x="2" y="42" height="20" width="800"></rect>
<rect x="2" y="62" height="20" width="630"></rect><g fill="#bbb"><text x="2" y="77">‘</text><text x="12" y="77">d</text><text x="22" y="77">u</text><text x="32" y="77">’</text> <text x="52" y="77">r</text><text x="62" y="77">e</text><text x="72" y="77">p</text><text x="82" y="77">o</text><text x="92" y="77">r</text><text x="102" y="77">t</text><text x="112" y="77">s</text> <text x="132" y="77">t</text><text x="142" y="77">h</text><text x="152" y="77">e</text> <text x="172" y="77">a</text><text x="182" y="77">m</text><text x="192" y="77">o</text><text x="202" y="77">u</text><text x="212" y="77">n</text><text x="222" y="77">t</text> <text x="242" y="77">o</text><text x="252" y="77">f</text> <text x="272" y="77">f</text><text x="282" y="77">i</text><text x="292" y="77">l</text><text x="302" y="77">e</text> <text x="322" y="77">s</text><text x="332" y="77">y</text><text x="342" y="77">s</text><text x="352" y="77">t</text><text x="362" y="77">e</text><text x="372" y="77">m</text> <text x="392" y="77">s</text><text x="402" y="77">p</text><text x="412" y="77">a</text><text x="422" y="77">c</text><text x="432" y="77">e</text> <text x="452" y="77">u</text><text x="462" y="77">s</text><text x="472" y="77">e</text><text x="482" y="77">d</text> <text x="502" y="77">b</text><text x="512" y="77">y</text> <text x="532" y="77">t</text><text x="542" y="77">h</text><text x="552" y="77">e</text> <text x="572" y="77">s</text><text x="582" y="77">e</text><text x="592" y="77">t</text> <text x="612" y="77">o</text><text x="622" y="77">f</text></g><rect x="632" y="62" height="20" width="170"></rect>
<rect x="2" y="82" height="20" width="670"></rect><g fill="#bbb"><text x="2" y="97">s</text><text x="12" y="97">p</text><text x="22" y="97">e</text><text x="32" y="97">c</text><text x="42" y="97">i</text><text x="52" y="97">f</text><text x="62" y="97">i</text><text x="72" y="97">e</text><text x="82" y="97">d</text> <text x="102" y="97">f</text><text x="112" y="97">i</text><text x="122" y="97">l</text><text x="132" y="97">e</text><text x="142" y="97">s</text> <text x="162" y="97">a</text><text x="172" y="97">n</text><text x="182" y="97">d</text> <text x="202" y="97">f</text><text x="212" y="97">o</text><text x="222" y="97">r</text> <text x="242" y="97">e</text><text x="252" y="97">a</text><text x="262" y="97">c</text><text x="272" y="97">h</text> <text x="292" y="97">s</text><text x="302" y="97">u</text><text x="312" y="97">b</text><text x="322" y="97">d</text><text x="332" y="97">i</text><text x="342" y="97">r</text><text x="352" y="97">e</text><text x="362" y="97">c</text><text x="372" y="97">t</text><text x="382" y="97">o</text><text x="392" y="97">r</text><text x="402" y="97">y</text> <text x="422" y="97">(</text><text x="432" y="97">o</text><text x="442" y="97">f</text> <text x="462" y="97">d</text><text x="472" y="97">i</text><text x="482" y="97">r</text><text x="492" y="97">e</text><text x="502" y="97">c</text><text x="512" y="97">t</text><text x="522" y="97">o</text><text x="532" y="97">r</text><text x="542" y="97">y</text> <text x="562" y="97">a</text><text x="572" y="97">r</text><text x="582" y="97">g</text><text x="592" y="97">u</text><text x="602" y="97">m</text><text x="612" y="97">e</text><text x="622" y="97">n</text><text x="632" y="97">t</text><text x="642" y="97">s</text><text x="652" y="97">)</text><text x="662" y="97">.</text></g><rect x="672" y="82" height="20" width="130"></rect>
<rect x="2" y="102" height="20" width="90"></rect><g fill="#bbb"><text x="2" y="117">S</text><text x="12" y="117">y</text><text x="22" y="117">n</text><text x="32" y="117">o</text><text x="42" y="117">p</text><text x="52" y="117">s</text><text x="62" y="117">i</text><text x="72" y="117">s</text><text x="82" y="117">:</text></g><rect x="92" y="102" height="20" width="710"></rect>
<rect x="2" y="122" height="20" width="800"></rect>
<rect x="2" y="142" height="20" width="290"></rect><g fill="#bbb"><text x="52" y="157">d</text><text x="62" y="157">u</text> <text x="82" y="157">[</text><text x="92" y="157">O</text><text x="102" y="157">P</text><text x="112" y="157">T</text><text x="122" y="157">I</text><text x="132" y="157">O</text><text x="142" y="157">N</text><text x="152" y="157">]</text><text x="162" y="157">.</text><text x="172" y="157">.</text><text x="182" y="157">.</text> <text x="202" y="157">[</text><text x="212" y="157">F</text><text x="222" y="157">I</text><text x="232" y="157">L</text><text x="242" y="157">E</text><text x="252" y="157">]</text><text x="262" y="157">.</text><text x="272" y="157">.</text><text x="282" y="157">.</text></g><rect x="292" y="142" height="20" width="510"></rect>
<rect x="2" y="162" height="20" width="800"></rect>
<rect x="2" y="182" height="20" width="720"></rect><g fill="#bbb"><text x="32" y="197">W</text><text x="42" y="197">i</text><text x="52" y="197">t</text><text x="62" y="197">h</text> <text x="82" y="197">n</text><text x="92" y="197">o</text> <text x="112" y="197">a</text><text x="122" y="197">r</text><text x="132" y="197">g</text><text x="142" y="197">u</text><text x="152" y="197">m</text><text x="162" y="197">e</text><text x="172" y="197">n</text><text x="182" y="197">t</text><text x="192" y="197">s</text><text x="202" y="197">,</text> <text x="222" y="197">‘</text><text x="232" y="197">d</text><text x="242" y="197">u</text><text x="252" y="197">’</text> <text x="272" y="197">r</text><text x="282" y="197">e</text><text x="292" y="197">p</text><text x="302" y="197">o</text><text x="312" y="197">r</text><text x="322" y="197">t</text><text x="332" y="197">s</text> <text x="352" y="197">t</text><text x="362" y="197">h</text><text x="372" y="197">e</text> <text x="392" y="197">f</text><text x="402" y="197">i</text><text x="412" y="197">l</text><text x="422" y="197">e</text> <text x="442" y="197">s</text><text x="452" y="197">y</text><text x="462" y="197">s</text><text x="472" y="197">t</text><text x="482" y="197">e</text><text x="492" y="197">m</text> <text x="512" y="197">s</text><text x="522" y="197">p</text><text x="532" y="197">a</text><text x="542" y="197">c</text><text x="552" y="197">e</text> <text x="572" y="197">f</text><text x="582" y="197">o</text><text x="592" y="197">r</text> <text x="612" y="197">t</text><text x="622" y="197">h</text><text x="632" y="197">e</text> <text x="652" y="197">c</text><text x="662" y="197">u</text><text x="672" y="197">r</text><text x="682" y="197">r</text><text x="692" y="197">e</text><text x="702" y="197">n</text><text x="712" y="197">t</text></g><rect x="722" y="182" height="20" width="80"></rect>
<rect x="2" y="202" height="20" width="690"></rect><g fill="#bbb"><text x="2" y="217">d</text><text x="12" y="217">i</text><text x="22" y="217">r</text><text x="32" y="217">e</text><text x="42" y="217">c</text><text x="52" y="217">t</text><text x="62" y="217">o</text><text x="72" y="217">r</text><text x="82" y="217">y</text><text x="92" y="217">.</text> <text x="122" y="217">N</text><text x="132" y="217">o</text><text x="142" y="217">r</text><text x="152" y="217">m</text><text x="162" y="217">a</text><text x="172" y="217">l</text><text x="182" y="217">l</text><text x="192" y="217">y</text> <text x="212" y="217">t</text><text x="222" y="217">h</text><text x="232" y="217">e</text> <text x="252" y="217">s</text><text x="262" y="217">p</text><text x="272" y="217">a</text><text x="282" y="217">c</text><text x="292" y="217">e</text> <text x="312" y="217">i</text><text x="322" y="217">s</text> <text x="342" y="217">p</text><text x="352" y="217">r</text><text x="362" y="217">i</text><text x="372" y="217">n</text><text x="382" y="217">t</text><text x="392" y="217">e</text><text x="402" y="217">d</text> <text x="422" y="217">i</text><text x="432" y="217">n</text> <text x="452" y="217">u</text><text x="462" y="217">n</text><text x="472" y="217">i</text><text x="482" y="217">t</text><text x="492" y="217">s</text> <text x="512" y="217">o</text><text x="522" y="217">f</text> <text x="542" y="217">1</text><text x="552" y="217">0</text><text x="562" y="217">2</text><text x="572" y="217">4</text> <text x="592" y="217">b</text><text x="602" y="217">y</text><text x="612" y="217">t</text><text x="622" y="217">e</text><text x="632" y="217">s</text><text x="642" y="217">,</text> <text x="662" y="217">b</text><text x="672" y="217">u</text><text x="682" y="217">t</text></g><rect x="692" y="202" height="20" width="110"></rect>
<rect x="2" y="222" height="20" width="240"></rect><g fill="#bbb"><text x="2" y="237">t</text><text x="12" y="237">h</text><text x="22" y="237">i</text><text x="32" y="237">s</text> <text x="52" y="237">c</text><text x="62" y="237">a</text><text x="72" y="237">n</text> <text x="92" y="237">b</text><text x="102" y="237">e</text> <text x="122" y="237">o</text><text x="132" y="237">v</text><text x="142" y="237">e</text><text x="152" y="237">r</text><text x="162" y="237">r</text><text x="172" y="237">i</text><text x="182" y="237">d</text><text x="192" y="237">d</text><text x="202" y="237">e</text><text x="212" y="237">n</text> <text x="232" y="237">(</text></g><rect x="242" y="222" height="20" width="10"></rect><g fill="#bbb"><text x="242" y="237">→</text> </g><line x1="242" y1="238" x2="252" y2="238" stroke="#bbb"></line><rect x="252" y="222" height="20" width="10"></rect><rect x="262" y="222" height="20" width="120"></rect><g fill="#bbb"><text x="262" y="237">B</text><text x="272" y="237">l</text><text x="282" y="237">o</text><text x="292" y="237">c</text><text x="302" y="237">k</text> <text x="322" y="237">s</text><text x="332" y="237">i</text><text x="342" y="237">z</text><text x="352" y="237">e</text><text x="362" y="237">:</text><text x="372" y="237">:</text></g><line x1="262" y1="238" x2="382" y2="238" stroke="#bbb"></line><rect x="382" y="222" height="20" width="300"></rect><g fill="#bbb"><text x="382" y="237">)</text><text x="392" y="237">.</text> <text x="422" y="237">N</text><text x="432" y="237">o</text><text x="442" y="237">n</text><text x="452" y="237">-</text><text x="462" y="237">i</text><text x="472" y="237">n</text><text x="482" y="237">t</text><text x="492" y="237">e</text><text x="502" y="237">g</text><text x="512" y="237">e</text><text x="522" y="237">r</text> <text x="542" y="237">q</text><text x="552" y="237">u</text><text x="562" y="237">a</text><text x="572" y="237">n</text><text x="582" y="237">t</text><text x="592" y="237">i</text><text x="602" y="237">t</text><text x="612" y="237">i</text><text x="622" y="237">e</text><text x="632" y="237">s</text> <text x="652" y="237">a</text><text x="662" y="237">r</text><text x="672" y="237">e</text></g><rect x="682" y="222" height="20" width="120"></rect>
<rect x="2" y="242" height="20" width="350"></rect><g fill="#bbb"><text x="2" y="257">r</text><text x="12" y="257">o</text><text x="22" y="257">u</text><text x="32" y="257">n</text><text x="42" y="257">d</text><text x="52" y="257">e</text><text x="62" y="257">d</text> <text x="82" y="257">u</text><text x="92" y="257">p</text> <text x="112" y="257">t</text><text x="122" y="257">o</text> <text x="142" y="257">t</text><text x="152" y="257">h</text><text x="162" y="257">e</text> <text x="182" y="257">n</text><text x="192" y="257">e</text><text x="202" y="257">x</text><text x="212" y="257">t</text> <text x="232" y="257">h</text><text x="242" y="257">i</text><text x="252" y="257">g</text><text x="262" y="257">h</text><text x="272" y="257">e</text><text x="282" y="257">r</text> <text x="302" y="257">u</text><text x="312" y="257">n</text><text x="322" y="257">i</text><text x="332" y="257">t</text><text x="342" y="257">.</text></g><rect x="352" y="242" height="20" width="450"></rect>
<rect x="2" y="262" height="20" width="800"></rect>
<rect x="2" y="282" height="20" width="680"></rect><g fill="#bbb"><text x="32" y="297">I</text><text x="42" y="297">f</text> <text x="62" y="297">t</text><text x="72" y="297">w</text><text x="82" y="297">o</text> <text x="102" y="297">o</text><text x="112" y="297">r</text> <text x="132" y="297">m</text><text x="142" y="297">o</text><text x="152" y="297">r</text><text x="162" y="297">e</text> <text x="182" y="297">h</text><text x="192" y="297">a</text><text x="202" y="297">r</text><text x="212" y="297">d</text> <text x="232" y="297">l</text><text x="242" y="297">i</text><text x="252" y="297">n</text><text x="262" y="297">k</text><text x="272" y="297">s</text> <text x="292" y="297">p</text><text x="302" y="297">o</text><text x="312" y="297">i</text><text x="322" y="297">n</text><text x="332" y="297">t</text> <text x="352" y="297">t</text><text x="362" y="297">o</text> <text x="382" y="297">t</text><text x="392" y="297">h</text><text x="402" y="297">e</text> <text x="422" y="297">s</text><text x="432" y="297">a</text><text x="442" y="297">m</text><text x="452" y="297">e</text> <text x="472" y="297">f</text><text x="482" y="297">i</text><text x="492" y="297">l</text><text x="502" y="297">e</text><text x="512" y="297">,</text> <text x="532" y="297">o</text><text x="542" y="297">n</text><text x="552" y="297">l</text><text x="562" y="297">y</text> <text x="582" y="297">o</text><text x="592" y="297">n</text><text x="602" y="297">e</text> <text x="622" y="297">o</text><text x="632" y="297">f</text> <text x="652" y="297">t</text><text x="662" y="297">h</text><text x="672" y="297">e</text></g><rect x="682" y="282" height="20" width="120"></rect>
<rect x="2" y="302" height="20" width="710"></rect><g fill="#bbb"><text x="2" y="317">h</text><text x="12" y="317">a</text><text x="22" y="317">r</text><text x="32" y="317">d</text> <text x="52" y="317">l</text><text x="62" y="317">i</text><text x="72" y="317">n</text><text x="82" y="317">k</text><text x="92" y="317">s</text> <text x="112" y="317">i</text><text x="122" y="317">s</text> <text x="142" y="317">c</text><text x="152" y="317">o</text><text x="162" y="317">u</text><text x="172" y="317">n</text><text x="182" y="317">t</text><text x="192" y="317">e</text><text x="202" y="317">d</text><text x="212" y="317">.</text> <text x="242" y="317">T</text><text x="252" y="317">h</text><text x="262" y="317">e</text> <text x="282" y="317">F</text><text x="292" y="317">I</text><text x="302" y="317">L</text><text x="312" y="317">E</text> <text x="332" y="317">a</text><text x="342" y="317">r</text><text x="352" y="317">g</text><text x="362" y="317">u</text><text x="372" y="317">m</text><text x="382" y="317">e</text><text x="392" y="317">n</text><text x="402" y="317">t</text> <text x="422" y="317">o</text><text x="432" y="317">r</text><text x="442" y="317">d</text><text x="452" y="317">e</text><text x="462" y="317">r</text> <text x="482" y="317">a</text><text x="492" y="317">f</text><text x="502" y="317">f</text><text x="512" y="317">e</text><text x="522" y="317">c</text><text x="532" y="317">t</text><text x="542" y="317">s</text> <text x="562" y="317">w</text><text x="572" y="317">h</text><text x="582" y="317">i</text><text x="592" y="317">c</text><text x="602" y="317">h</text> <text x="622" y="317">l</text><text x="632" y="317">i</text><text x="642" y="317">n</text><text x="652" y="317">k</text><text x="662" y="317">s</text> <text x="682" y="317">a</text><text x="692" y="317">r</text><text x="702" y="317">e</text></g><rect x="712" y="302" height="20" width="90"></rect>
<rect x="2" y="322" height="20" width="670"></rect><g fill="#bbb"><text x="2" y="337">c</text><text x="12" y="337">o</text><text x="22" y="337">u</text><text x="32" y="337">n</text><text x="42" y="337">t</text><text x="52" y="337">e</text><text x="62" y="337">d</text><text x="72" y="337">,</text> <text x="92" y="337">a</text><text x="102" y="337">n</text><text x="112" y="337">d</text> <text x="132" y="337">c</text><text x="142" y="337">h</text><text x="152" y="337">a</text><text x="162" y="337">n</text><text x="172" y="337">g</text><text x="182" y="337">i</text><text x="192" y="337">n</text><text x="202" y="337">g</text> <text x="222" y="337">t</text><text x="232" y="337">h</text><text x="242" y="337">e</text> <text x="262" y="337">a</text><text x="272" y="337">r</text><text x="282" y="337">g</text><text x="292" y="337">u</text><text x="302" y="337">m</text><text x="312" y="337">e</text><text x="322" y="337">n</text><text x="332" y="337">t</text> <text x="352" y="337">o</text><text x="362" y="337">r</text><text x="372" y="337">d</text><text x="382" y="337">e</text><text x="392" y="337">r</text> <text x="412" y="337">m</text><text x="422" y="337">a</text><text x="432" y="337">y</text> <text x="452" y="337">c</text><text x="462" y="337">h</text><text x="472" y="337">a</text><text x="482" y="337">n</text><text x="492" y="337">g</text><text x="502" y="337">e</text> <text x="522" y="337">t</text><text x="532" y="337">h</text><text x="542" y="337">e</text> <text x="562" y="337">n</text><text x="572" y="337">u</text><text x="582" y="337">m</text><text x="592" y="337">b</text><text x="602" y="337">e</text><text x="612" y="337">r</text><text x="622" y="337">s</text> <text x="642" y="337">a</text><text x="652" y="337">n</text><text x="662" y="337">d</text></g><rect x="672" y="322" height="20" width="130"></rect>
<rect x="2" y="342" height="20" width="260"></rect><g fill="#bbb"><text x="2" y="357">e</text><text x="12" y="357">n</text><text x="22" y="357">t</text><text x="32" y="357">r</text><text x="42" y="357">i</text><text x="52" y="357">e</text><text x="62" y="357">s</text> <text x="82" y="357">t</text><text x="92" y="357">h</text><text x="102" y="357">a</text><text x="112" y="357">t</text> <text x="132" y="357">‘</text><text x="142" y="357">d</text><text x="152" y="357">u</text><text x="162" y="357">’</text> <text x="182" y="357">o</text><text x="192" y="357">u</text><text x="202" y="357">t</text><text x="212" y="357">p</text><text x="222" y="357">u</text><text x="232" y="357">t</text><text x="242" y="357">s</text><text x="252" y="357">.</text></g><rect x="262" y="342" height="20" width="540"></rect>
<rect x="2" y="362" height="20" width="800"></rect>
<rect x="2" y="382" height="20" width="560"></rect><g fill="#bbb"><text x="32" y="397">T</text><text x="42" y="397">h</text><text x="52" y="397">e</text> <text x="72" y="397">p</text><text x="82" y="397">r</text><text x="92" y="397">o</text><text x="102" y="397">g</text><text x="112" y="397">r</text><text x="122" y="397">a</text><text x="132" y="397">m</text> <text x="152" y="397">a</text><text x="162" y="397">c</text><text x="172" y="397">c</text><text x="182" y="397">e</text><text x="192" y="397">p</text><text x="202" y="397">t</text><text x="212" y="397">s</text> <text x="232" y="397">t</text><text x="242" y="397">h</text><text x="252" y="397">e</text> <text x="272" y="397">f</text><text x="282" y="397">o</text><text x="292" y="397">l</text><text x="302" y="397">l</text><text x="312" y="397">o</text><text x="322" y="397">w</text><text x="332" y="397">i</text><text x="342" y="397">n</text><text x="352" y="397">g</text> <text x="372" y="397">o</text><text x="382" y="397">p</text><text x="392" y="397">t</text><text x="402" y="397">i</text><text x="412" y="397">o</text><text x="422" y="397">n</text><text x="432" y="397">s</text><text x="442" y="397">.</text> <text x="472" y="397">A</text><text x="482" y="397">l</text><text x="492" y="397">s</text><text x="502" y="397">o</text> <text x="522" y="397">s</text><text x="532" y="397">e</text><text x="542" y="397">e</text> </g><rect x="562" y="382" height="20" width="10"></rect><g fill="#bbb"><text x="562" y="397">→</text> </g><line x1="562" y1="398" x2="572" y2="398" stroke="#bbb"></line><rect x="572" y="382" height="20" width="10"></rect><rect x="582" y="382" height="20" width="60"></rect><g fill="#bbb"><text x="582" y="397">C</text><text x="592" y="397">o</text><text x="602" y="397">m</text><text x="612" y="397">m</text><text x="622" y="397">o</text><text x="632" y="397">n</text></g><line x1="582" y1="398" x2="642" y2="398" stroke="#bbb"></line><rect x="642" y="382" height="20" width="160"></rect>
<rect x="2" y="402" height="20" width="90"></rect><g fill="#bbb"><text x="2" y="417">o</text><text x="12" y="417">p</text><text x="22" y="417">t</text><text x="32" y="417">i</text><text x="42" y="417">o</text><text x="52" y="417">n</text><text x="62" y="417">s</text><text x="72" y="417">:</text><text x="82" y="417">:</text></g><line x1="2" y1="418" x2="92" y2="418" stroke="#bbb"></line><rect x="92" y="402" height="20" width="10"></rect><g fill="#bbb"><text x="92" y="417">.</text></g><rect x="102" y="402" height="20" width="700"></rect>
<rect x="2" y="422" height="20" width="800"></rect>
<rect x="2" y="442" height="20" width="40"></rect><g fill="#bbb"><text x="2" y="457">‘</text><text x="12" y="457">-</text><text x="22" y="457">0</text><text x="32" y="457">’</text></g><rect x="42" y="442" height="20" width="760"></rect>
<rect x="2" y="462" height="20" width="690" fill="#bbb"></rect><g><text x="2" y="477">I</text><text x="12" y="477">n</text><text x="22" y="477">f</text><text x="32" y="477">o</text> <text x="52" y="477">(</text><text x="62" y="477">c</text><text x="72" y="477">o</text><text x="82" y="477">r</text><text x="92" y="477">e</text><text x="102" y="477">u</text><text x="112" y="477">t</text><text x="122" y="477">i</text><text x="132" y="477">l</text><text x="142" y="477">s</text><text x="152" y="477">)</text><text x="162" y="477">d</text><text x="172" y="477">u</text> <text x="192" y="477">i</text><text x="202" y="477">n</text><text x="212" y="477">v</text><text x="222" y="477">o</text><text x="232" y="477">c</text><text x="242" y="477">a</text><text x="252" y="477">t</text><text x="262" y="477">i</text><text x="272" y="477">o</text><text x="282" y="477">n</text><text x="292" y="477">,</text> <text x="312" y="477">l</text><text x="322" y="477">i</text><text x="332" y="477">n</text><text x="342" y="477">e</text> <text x="362" y="477">3</text> <text x="382" y="477">(</text><text x="392" y="477">p</text><text x="402" y="477">r</text><text x="412" y="477">e</text><text x="422" y="477">s</text><text x="432" y="477">s</text> <text x="452" y="477">h</text> <text x="472" y="477">f</text><text x="482" y="477">o</text><text x="492" y="477">r</text> <text x="512" y="477">h</text><text x="522" y="477">e</text><text x="532" y="477">l</text><text x="542" y="477">p</text> <text x="562" y="477">o</text><text x="572" y="477">r</text> <text x="592" y="477">q</text> <text x="612" y="477">t</text><text x="622" y="477">o</text> <text x="642" y="477">q</text><text x="652" y="477">u</text><text x="662" y="477">i</text><text x="672" y="477">t</text><text x="682" y="477">)</text></g><rect x="692" y="462" height="20" width="110"></rect>
</g>
</svg>
